<?xml version="1.0" encoding="UTF-8" standalone="no"?>
<!-- Created with Inkscape (http://www.inkscape.org/) -->

<svg
   xmlns:dc="http://purl.org/dc/elements/1.1/"
   xmlns:cc="http://creativecommons.org/ns#"
   xmlns:rdf="http://www.w3.org/1999/02/22-rdf-syntax-ns#"
   xmlns:svg="http://www.w3.org/2000/svg"
   xmlns="http://www.w3.org/2000/svg"
   xmlns:sodipodi="http://sodipodi.sourceforge.net/DTD/sodipodi-0.dtd"
   xmlns:inkscape="http://www.inkscape.org/namespaces/inkscape"
   width="720"
   height="720"
   viewBox="0 0 190.5 190.50001"
   version="1.1"
   id="svg8"
   inkscape:version="0.92.3 (2405546, 2018-03-11)"
   sodipodi:docname="Logo.svg">
  <defs
     id="defs2" />
  <sodipodi:namedview
     id="base"
     pagecolor="#ffffff"
     bordercolor="#666666"
     borderopacity="1.0"
     inkscape:pageopacity="0.0"
     inkscape:pageshadow="2"
     inkscape:zoom="1"
     inkscape:cx="409.21923"
     inkscape:cy="346.67211"
     inkscape:document-units="mm"
     inkscape:current-layer="layer1"
     showgrid="false"
     units="px"
     inkscape:window-width="1920"
     inkscape:window-height="1001"
     inkscape:window-x="-9"
     inkscape:window-y="-9"
     inkscape:window-maximized="1" />
  <metadata
     id="metadata5">
    <rdf:RDF>
      <cc:Work
         rdf:about="">
        <dc:format>image/svg+xml</dc:format>
        <dc:type
           rdf:resource="http://purl.org/dc/dcmitype/StillImage" />
        <dc:title></dc:title>
      </cc:Work>
    </rdf:RDF>
  </metadata>
  <g
     inkscape:label="Capa 1"
     inkscape:groupmode="layer"
     id="layer1"
     transform="translate(0,-106.49998)">
    <path
       style="fill:none;stroke:#000000;stroke-width:0.26458332px;stroke-linecap:butt;stroke-linejoin:miter;stroke-opacity:1"
       d="m 114.56458,154.65414 c 0.79375,-4.7625 -11.64166,-28.31041 -26.45833,-21.96041 -14.816668,6.35 -41.539584,15.08125 -35.189584,32.01458 6.35,16.93333 16.66875,40.21667 28.310414,41.53958 11.64167,1.32292 33.07292,-3.96875 36.5125,12.43542 3.43958,16.40416 2.64583,28.31041 -12.96458,28.31041 -15.61042,0 -56.620834,-0.52916 -56.620834,-0.52916 l 0.264583,15.875 c 0,0 65.352081,2.11666 71.437501,0 6.08541,-2.11667 14.55208,-16.13959 14.55208,-17.72709 0,-1.5875 0.26458,-23.01874 0,-28.83958 -0.26458,-5.82083 -4.49792,-14.55208 -10.05417,-16.13958 -5.55625,-1.5875 -34.39583,2.11667 -42.06874,-6.08542 -7.672921,-8.20208 -20.637504,-26.9875 -19.314588,-32.80833 1.322917,-5.82083 24.341668,-22.48958 29.897918,-19.31458 5.55625,3.175 12.96458,17.99166 12.96458,17.99166 z"
       id="path12"
       inkscape:connector-curvature="0" />
    <path
       style="fill:none;stroke:#000000;stroke-width:0.26458332px;stroke-linecap:butt;stroke-linejoin:miter;stroke-opacity:1"
       d="m 51.593749,123.43331 c 2.38125,3.175 30.956251,40.21667 34.660421,53.18125 3.70416,12.96458 -4.49792,101.6 -4.49792,101.6 l 11.90625,0.52916 c 0,0 11.37708,-89.42916 3.70417,-107.68541 -7.67292,-18.25625 -37.835421,-55.29792 -37.835421,-55.29792 z"
       id="path14"
       inkscape:connector-curvature="0" />
    <path
       style="fill:#008000"
       d="m 307.13587,375.94637 c -24.40674,-3.14425 -48.97965,-30.81526 -75.94368,-85.51848 -17.45855,-35.41902 -32.62763,-74.1003 -33.60461,-85.69208 -1.79151,-21.25601 11.15311,-40.39589 40.49319,-59.87313 l 10.36155,-6.87846 6.3744,9.00602 c 3.50592,4.95331 8.24798,11.76497 10.53791,15.13704 l 4.1635,6.13103 -6.39945,5.50198 c -10.20084,8.77024 -20.36961,19.77812 -23.38008,25.30934 -2.06198,3.78853 -2.76813,6.45133 -2.73347,10.30757 0.12,13.35451 14.52905,42.36247 36.87383,74.23351 21.47977,30.63725 38.65189,49.99802 48.59027,54.78329 l 5.75,2.76859 v 7.22709 c 0,3.9749 -0.29338,12.02209 -0.65197,17.88265 l -0.65196,10.65556 -7.09804,-0.13112 c -3.90391,-0.0721 -9.61054,-0.45479 -12.68139,-0.8504 z"
       id="path16"
       inkscape:connector-curvature="0"
       transform="matrix(0.26458333,0,0,0.26458333,0,106.49998)" />
    <path
       style="fill:#008000"
       d="m 366.21923,347.23134 c -8.35952,-0.89918 -22.05384,-3.50374 -28.75,-5.46803 l -7.25,-2.12677 v -25.3151 c 0,-29.25124 -1.18761,-42.89517 -4.64049,-53.31294 -4.89187,-14.75934 -19.6737,-41.40023 -40.99839,-73.8903 -6.24862,-9.52034 -11.36112,-17.69024 -11.36112,-18.15535 0,-1.73024 31.06067,-23.07716 33.47112,-23.00353 1.28416,0.0392 1.54834,0.40622 17.30184,24.03505 23.73096,35.59431 39.35703,63.34181 44.79671,79.54633 4.83955,14.41676 8.41175,50.51414 8.42519,85.13719 l 0.005,13.25 -3.75,-0.16004 c -2.0625,-0.088 -5.325,-0.32945 -7.25,-0.53651 z"
       id="path18"
       inkscape:connector-curvature="0"
       transform="matrix(0.26458333,0,0,0.26458333,0,106.49998)" />
    <path
       style="fill:#008000"
       d="m 396.65181,191.51459 c -14.83062,-27.57173 -31.60546,-50.58 -42.83262,-58.74899 -3.21913,-2.34227 -4.91238,-2.83771 -9.69838,-2.83771 -6.96983,0 -18.40725,3.52708 -28.85542,8.89845 l -7.45384,3.83199 -8.70173,-12.11522 c -4.78596,-6.66337 -8.40673,-12.39757 -8.04617,-12.74266 1.49718,-1.43292 47.08673,-19.723622 52.04692,-20.88142 26.57175,-6.202319 59.11294,16.78112 79.58042,56.20666 5.25356,10.1197 9.54642,21.92791 9.50954,26.15754 -0.0151,1.73568 -3.04302,3.78214 -15.87777,10.73136 l -15.85906,8.5867 z"
       id="path20"
       inkscape:connector-curvature="0"
       transform="matrix(0.26458333,0,0,0.26458333,0,106.49998)" />
    <path
       style="fill:#008000"
       d="m 264.13224,156.71882 c -3.97934,-5.66001 -8.77158,-12.42239 -10.64941,-15.02751 l -3.41424,-4.73659 17.32532,-8.42428 c 9.52892,-4.63336 18.17775,-8.5769 19.21961,-8.76342 1.42903,-0.25583 4.04576,2.60615 10.65393,11.65248 l 8.75964,11.99161 -6.15393,3.87712 c -8.32879,5.24733 -18.16892,11.93688 -23.82984,16.2001 l -4.6759,3.52141 z"
       id="path22"
       inkscape:connector-curvature="0"
       transform="matrix(0.26458333,0,0,0.26458333,0,106.49998)" />
    <path
       style="fill:#008000"
       d="m 244.23823,128.67789 c -2.40609,-3.4375 -14.17074,-19.39502 -26.14366,-35.461149 L 196.32562,64.005591 210.42749,50.47299 c 10.4007,-9.98084 14.4259,-13.263676 15.33648,-12.507966 3.38629,2.810373 60.47447,77.148136 60.43653,78.697846 -0.017,0.69264 -35.72786,18.32097 -37.03442,18.28166 -0.30422,-0.009 -2.52176,-2.82914 -4.92785,-6.26664 z"
       id="path24"
       inkscape:connector-curvature="0"
       transform="matrix(0.26458333,0,0,0.26458333,0,106.49998)" />
    <path
       style="fill:#008000"
       d="m 329.74047,359.67789 c 0.3954,-9.4875 0.77737,-17.31107 0.84883,-17.38571 0.0715,-0.0746 4.2938,0.92144 9.38297,2.2135 5.08917,1.29207 15.55167,3.12037 23.25,4.06289 l 13.99696,1.71367 v 4.1692 c 0,2.29306 -0.29239,8.28833 -0.64975,13.32283 l -0.64974,9.15362 h -23.44909 -23.44908 z"
       id="path26"
       inkscape:connector-curvature="0"
       transform="matrix(0.26458333,0,0,0.26458333,0,106.49998)" />
    <path
       style="fill:#008000"
       d="m 362.27227,589.31977 c 0.0292,-1.59054 1.28906,-15.04188 2.79974,-29.89188 l 2.74668,-27 21.95027,-0.64104 c 15.14441,-0.44229 23.61498,-1.12159 27.3193,-2.19089 17.83118,-5.14721 27.79112,-15.40646 32.88644,-33.87467 2.84557,-10.3139 2.33673,-36.15597 -1.10217,-55.97594 -3.2509,-18.73634 -4.82275,-24.37915 -8.99868,-32.30447 -8.35691,-15.86019 -27.09721,-26.48129 -51.15462,-28.99199 -3.3,-0.3444 -7.07848,-0.85264 -8.39661,-1.12943 l -2.3966,-0.50326 0.69469,-13.15891 c 0.38208,-7.2374 0.78555,-13.18735 0.8966,-13.22212 2.09576,-0.65614 87.12158,1.55944 89.53619,2.33311 13.96842,4.47563 26.99689,20.43395 34.41937,42.15961 l 3.24563,9.5 0.29537,58.85525 0.29537,58.85525 -2.90656,6.14475 c -10.10411,21.36114 -35.48255,51.74766 -48.52314,58.09852 -6.71264,3.26911 -17.95817,4.2166 -60.91031,5.13201 l -32.75,0.69797 z"
       id="path28"
       inkscape:connector-curvature="0"
       transform="matrix(0.26458333,0,0,0.26458333,0,106.49998)" />
    <path
       style="fill:#008000"
       d="m 330.82805,591.17907 -15.89117,-0.3034 0.59651,-6.72389 c 0.32809,-3.69814 1.38005,-16.96139 2.33769,-29.47389 l 1.74118,-22.75 h 23.24061 23.24061 l -0.4537,3.25 c -0.64371,4.61104 -5.42055,53.20556 -5.42055,55.14291 0,1.33939 -1.12437,1.56999 -6.75,1.38438 -3.7125,-0.12248 -13.90103,-0.35923 -22.64118,-0.52611 z"
       id="path30"
       inkscape:connector-curvature="0"
       transform="matrix(0.26458333,0,0,0.26458333,0,106.49998)" />
    <path
       style="fill:#008000"
       d="m 243.21923,589.80825 c -18.975,-0.4423 -39.94736,-1.08788 -46.60525,-1.43461 l -12.10524,-0.63044 -0.63958,-9.65765 c -0.35177,-5.31171 -0.64192,-18.30349 -0.64476,-28.87063 l -0.005,-19.21296 63.75,0.51527 c 35.0625,0.28341 65.2125,0.73713 67,1.00828 3.07739,0.46682 3.24891,0.71632 3.22944,4.6977 -0.0113,2.31257 -0.90206,14.77968 -1.97944,27.70468 -1.07738,12.925 -1.96813,24.2875 -1.97944,25.25 -0.0237,2.01701 -7.60432,2.08525 -70.02056,0.63036 z"
       id="path32"
       inkscape:connector-curvature="0"
       transform="matrix(0.26458333,0,0,0.26458333,0,106.49998)" />
    <path
       style="fill:#008000"
       d="m 325.88457,648.85855 c -8.15906,-0.42165 -15.03244,-0.96442 -15.27417,-1.20615 -0.24174,-0.24174 0.59335,-12.54114 1.85574,-27.33201 l 2.29525,-26.8925 h 21.64594 c 11.90527,0 21.97754,0.33176 22.38283,0.73724 0.61458,0.61488 -3.49918,41.38349 -5.28827,52.40835 l -0.54435,3.35441 -6.11916,-0.15135 c -3.36553,-0.0832 -12.79475,-0.49635 -20.95381,-0.91799 z"
       id="path34"
       inkscape:connector-curvature="0"
       transform="matrix(0.26458333,0,0,0.26458333,0,106.49998)" />
    <path
       style="fill:#008000"
       d="m 320.22753,527.17789 c 0.005,-1.5125 1.10891,-18.5 2.4541,-37.75 1.34519,-19.25 3.14646,-48.275 4.00282,-64.5 0.85636,-16.225 1.81741,-33.2125 2.13567,-37.75 l 0.57864,-8.25 h 23.41023 23.41024 l -0.002,3.75 c -0.008,13.57834 -4.56216,83.42539 -8.03592,123.23412 -1.0791,12.36627 -1.96199,22.82877 -1.96199,23.25 0,0.42124 -10.35,0.76588 -23,0.76588 h -23 z"
       id="path36"
       inkscape:connector-curvature="0"
       transform="matrix(0.26458333,0,0,0.26458333,0,106.49998)" />
  </g>
</svg>
